# xmcd CD database file
#
# Track frame offsets:
#	150
#	21917
#	42082
#	57964
#	73875
#	93297
#	111822
#	133270
#	154120
#	171455
#
# Disc length: 2448 seconds
#
# Revision: 0
# Processed by: cddbd v1.5.1PL0 Copyright (c) Steve Scherf et al.
# Submitted via: CDex 1.60beta1
#
DISCID=8b098e0a
DTITLE=Soulful Hearts - Inspirations Of Hope [CD1]
DYEAR=0
DGENRE=Blues
TTITLE0=Walk With Me
TTITLE1=Yield Not To Temptation
TTITLE2=I Must Tell Jesus
TTITLE3=There Is Power In The Blood
TTITLE4=Just A Closer Walk With Thee
TTITLE5=I Need Thee Every Hour
TTITLE6=Higher Ground
TTITLE7=Pass Me Not
TTITLE8=There Is A Fountain
TTITLE9=Only Believe/Wade In The Water
EXTD=YEAR: 0
EXTT0=
EXTT1=
EXTT2=
EXTT3=
EXTT4=
EXTT5=
EXTT6=
EXTT7=
EXTT8=
EXTT9=
PLAYORDER=
